<svg id="Layer_1" enable-background="new 0 0 512.816 512.816" height="512" viewBox="0 0 512.816 512.816" width="512" xmlns="http://www.w3.org/2000/svg"><path d="m450.731 485.054c-7.014-25.88-8.724-67.433-32.158-85.035v-240.855c0-87.764-71.4-159.164-159.164-159.164-89.528 0-165.164 72.888-165.164 159.164v239.426c-20.919 16.026-25.13 63.13-32.053 86.008-1.657 6.853-.107 13.96 4.252 19.5 4.36 5.541 10.904 8.718 17.954 8.718h344.022c6.959 0 13.45-3.111 17.81-8.535 4.358-5.424 5.999-12.432 4.501-19.227zm-322.227-72.035 52.318-14.208c20.205-5.487 36.467-20.536 43.501-40.254l8.068-22.615c7.709 1.776 15.709 2.721 23.915 2.721 9.628 0 18.976-1.289 27.898-3.711l7.671 23.404c6.416 19.583 21.986 34.958 41.649 41.128l53.876 16.907c6.827 2.143 12.68 6.376 16.882 11.91h-295.977c4.453-7.396 11.619-12.952 20.199-15.282zm127.802-104.356c-45.25 0-82.063-39.613-82.063-88.304v-66.923c75.201 23.704 136.376 27.287 164.127 27.48v39.443c-.001 48.691-36.814 88.304-82.064 88.304zm-91.53-240.539c25.621-24.228 60.114-38.124 94.633-38.124 71.222 0 129.164 57.942 129.164 129.164v226.153l-46.067-14.457c-10.445-3.278-18.716-11.444-22.124-21.847l-8.505-25.949c33.724-20.416 56.492-58.805 56.492-102.705v-54.734c0-4.142-1.721-8.099-4.74-10.935-3.021-2.835-7.09-4.3-11.22-4.035-.817.051-83.463 4.757-188.177-32.185-4.59-1.621-9.682-.911-13.655 1.901s-6.335 7.377-6.335 12.245v87.743c0 45.463 24.422 85.011 60.139 104.812l-8.314 23.306c-3.737 10.475-12.375 18.468-23.108 21.383l-48.714 13.229v-223.925c0-33.993 14.394-66.325 40.531-91.04zm-71.287 414.692 5.931-24.516h314.697l5.402 24.517h-326.03z"/></svg>